<svg xmlns="http://www.w3.org/2000/svg" width="1005" height="600"><rect width="1005" height="600" x="0" y="0" fill="#FFFFFF" id="background"/><g transform="translate(20,20)" id="viz"><g id="nodes"><g transform="translate(383.5,281)"><path id="p_944.5" d="M-5.143516556418883e-14,280A280,280,0,1,1,5.143516556418883e-14,-280A280,280,0,1,1,-5.143516556418883e-14,280Z" fill="none" stroke="#ccc"/><text fill="black" text-anchor="middle" font-family="'Arial', sans-serif" font-size="8" dominant-baseline="middle" x="0" y="-280"/></g><g transform="translate(235.95314641156378,281)" id="Europe"><path id="p_644.0775551215312" d="M-2.335237503302421e-14,127.12440870996735A127.12440870996735,127.12440870996735,0,1,1,2.335237503302421e-14,-127.12440870996735A127.12440870996735,127.12440870996735,0,1,1,-2.335237503302421e-14,127.12440870996735Z" fill="none" stroke="#ccc"/><text fill="black" text-anchor="middle" font-family="'Arial', sans-serif" font-size="8" dominant-baseline="middle" x="0" y="-127.12440870996735">Europe</text></g><g transform="translate(513.2887775607655,281)" id="Asia"><path id="p_939.1712622984036" d="M-2.661448067796955e-14,144.88248473763804A144.88248473763804,144.88248473763804,0,1,1,2.661448067796955e-14,-144.88248473763804A144.88248473763804,144.88248473763804,0,1,1,-2.661448067796955e-14,144.88248473763804Z" fill="none" stroke="#ccc"/><text fill="black" text-anchor="middle" font-family="'Arial', sans-serif" font-size="8" dominant-baseline="middle" x="0" y="-144.88248473763804">Asia</text></g><g transform="translate(362.126525042149,418.0040207623824)" id="Africa"><path id="p_833.9294414760449" d="M-9.882696807267193e-15,53.79889567151341A53.79889567151341,53.79889567151341,0,1,1,9.882696807267193e-15,-53.79889567151341A53.79889567151341,53.79889567151341,0,1,1,-9.882696807267193e-15,53.79889567151341Z" fill="none" stroke="#ccc"/><text fill="black" text-anchor="middle" font-family="'Arial', sans-serif" font-size="8" dominant-baseline="middle" x="0" y="-53.79889567151341">Africa</text></g><g transform="translate(363.2286073422689,169.75435268414265)" id="North America"><path id="p_569.5701549592959" d="M-6.720958674650572e-15,36.58719493288441A36.58719493288441,36.58719493288441,0,1,1,6.720958674650572e-15,-36.58719493288441A36.58719493288441,36.58719493288441,0,1,1,-6.720958674650572e-15,36.58719493288441Z" fill="none" stroke="#ccc"/><text fill="black" text-anchor="middle" font-family="'Arial', sans-serif" font-size="8" dominant-baseline="middle" x="0" y="-36.58719493288441">North America</text></g><g transform="translate(312.36695301694664,161.1737097758621)" id="South America"><path id="p_483.2051073712564" d="M-1.7753296677799417e-15,9.664444578447682A9.664444578447682,9.664444578447682,0,1,1,1.7753296677799417e-15,-9.664444578447682A9.664444578447682,9.664444578447682,0,1,1,-1.7753296677799417e-15,9.664444578447682Z" fill="none" stroke="#ccc"/><text fill="black" text-anchor="middle" font-family="'Arial', sans-serif" font-size="8" dominant-baseline="middle" x="0" y="-9.664444578447682">South America</text></g><g transform="translate(196.7829969202534,280.63470699395725)" id="Madrid"><path id="p_529.8319379012709" d="M-9.628338582302063e-15,52.41423398706026A52.41423398706026,52.41423398706026,0,1,1,9.628338582302063e-15,-52.41423398706026A52.41423398706026,52.41423398706026,0,1,1,-9.628338582302063e-15,52.41423398706026Z" fill="#2ca02c" stroke="none"/></g><g transform="translate(294.23820670225837,280.63470699395725)" id="Warsaw"><path id="p_614.585151789564" d="M-7.295019790199492e-15,39.712238093348326A39.712238093348326,39.712238093348326,0,1,1,7.295019790199492e-15,-39.712238093348326A39.712238093348326,39.712238093348326,0,1,1,-7.295019790199492e-15,39.712238093348326Z" fill="#2ca02c" stroke="none"/></g><g transform="translate(257.0065863659154,353.5279208327363)" id="Barcelona"><path id="p_647.3447022970763" d="M-6.761923140491297e-15,36.810195098424636A36.810195098424636,36.810195098424636,0,1,1,6.761923140491297e-15,-36.810195098424636A36.810195098424636,36.810195098424636,0,1,1,-6.761923140491297e-15,36.810195098424636Z" fill="#2ca02c" stroke="none"/></g><g transform="translate(256.7228435323636,210.34550881112614)" id="Munich"><path id="p_501.70154962209756" d="M-6.36201512872289e-15,34.63319727860786A34.63319727860786,34.63319727860786,0,1,1,6.36201512872289e-15,-34.63319727860786A34.63319727860786,34.63319727860786,0,1,1,-6.36201512872289e-15,34.63319727860786Z" fill="#2ca02c" stroke="none"/></g><g transform="translate(198.92161468122978,204.8189984074914)" id="Szczecin"><path id="p_421.843507170029" d="M-3.325447693796585e-15,18.10289408130786A18.10289408130786,18.10289408130786,0,1,1,3.325447693796585e-15,-18.10289408130786A18.10289408130786,18.10289408130786,0,1,1,-3.325447693796585e-15,18.10289408130786Z" fill="#2ca02c" stroke="none"/></g><g transform="translate(196.9877867650957,356.3222833516306)" id="Sosnowiec"><path id="p_571.2549518378419" d="M-3.2964212941263115e-15,17.94488172111561A17.94488172111561,17.94488172111561,0,1,1,3.2964212941263115e-15,-17.94488172111561A17.94488172111561,17.94488172111561,0,1,1,-3.2964212941263115e-15,17.94488172111561Z" fill="#2ca02c" stroke="none"/></g><g transform="translate(312.5758607538982,221.39366413949978)" id="Dąbrowa Górnicza"><path id="p_550.9428274108008" d="M-3.117945089834549e-15,16.973302517402754A16.973302517402754,16.973302517402754,0,1,1,3.117945089834549e-15,-16.973302517402754A16.973302517402754,16.973302517402754,0,1,1,-3.117945089834549e-15,16.973302517402754Z" fill="#2ca02c" stroke="none"/></g><g transform="translate(312.8204874372449,338.44055750641104)" id="Białystok"><path id="p_666.9392383688347" d="M-2.8800374091837516e-15,15.67819342517884A15.67819342517884,15.67819342517884,0,1,1,2.8800374091837516e-15,-15.67819342517884A15.67819342517884,15.67819342517884,0,1,1,-2.8800374091837516e-15,15.67819342517884Z" fill="#2ca02c" stroke="none"/></g><g transform="translate(161.8425160680739,216.3709398885003)" id="Katowice"><path id="p_393.6187512656116" d="M-2.829906838519856e-15,15.40529530903739A15.40529530903739,15.40529530903739,0,1,1,2.829906838519856e-15,-15.40529530903739A15.40529530903739,15.40529530903739,0,1,1,-2.829906838519856e-15,15.40529530903739Z" fill="#2ca02c" stroke="none"/></g><g transform="translate(161.67176018835724,343.528987426666)" id="Gdynia"><path id="p_519.4889459570655" d="M-2.6246994547746926e-15,14.288198342042298A14.288198342042298,14.288198342042298,0,1,1,2.6246994547746926e-15,-14.288198342042298A14.288198342042298,14.288198342042298,0,1,1,-2.6246994547746926e-15,14.288198342042298Z" fill="#2ca02c" stroke="none"/></g><g transform="translate(218.2358334358937,173.78232679336145)" id="Chorzów"><path id="p_405.1421577117096" d="M-2.410839226335864e-15,13.123997482454447A13.123997482454447,13.123997482454447,0,1,1,2.410839226335864e-15,-13.123997482454447A13.123997482454447,13.123997482454447,0,1,1,-2.410839226335864e-15,13.123997482454447Z" fill="#2ca02c" stroke="none"/></g><g transform="translate(214.25502503452282,387.8994654598866)" id="Rzeszów"><path id="p_614.8708133799469" d="M-2.3359506178046615e-15,12.71632288553751A12.71632288553751,12.71632288553751,0,1,1,2.3359506178046615e-15,-12.71632288553751A12.71632288553751,12.71632288553751,0,1,1,-2.3359506178046615e-15,12.71632288553751Z" fill="#2ca02c" stroke="none"/></g><g transform="translate(338.8555867244495,244.2535635067592)" id="Kielce"><path id="p_595.6381162590651" d="M-2.3015337213960498e-15,12.528966027856452A12.528966027856452,12.528966027856452,0,1,1,2.3015337213960498e-15,-12.528966027856452A12.528966027856452,12.528966027856452,0,1,1,-2.3015337213960498e-15,12.528966027856452Z" fill="#2ca02c" stroke="none"/></g><g transform="translate(337.021473367608,317.16507899314325)" id="Bytom"><path id="p_665.4028070784909" d="M-2.0603925657752143e-15,11.216254717739787A11.216254717739787,11.216254717739787,0,1,1,2.0603925657752143e-15,-11.216254717739787A11.216254717739787,11.216254717739787,0,1,1,-2.0603925657752143e-15,11.216254717739787Z" fill="#2ca02c" stroke="none"/></g><g transform="translate(301.8957977657157,192.313976240081)" id="Vitry-sur-Seine"><path id="p_502.886629728376" d="M-1.5939125380980268e-15,8.676855722579337A8.676855722579337,8.676855722579337,0,1,1,1.5939125380980268e-15,-8.676855722579337A8.676855722579337,8.676855722579337,0,1,1,-1.5939125380980268e-15,8.676855722579337Z" fill="#2ca02c" stroke="none"/></g><g transform="translate(305.90079600400566,367.2819857618129)" id="Maribor"><path id="p_681.8357581463627" d="M-1.5895259741296383e-15,8.652976380544052A8.652976380544052,8.652976380544052,0,1,1,1.5895259741296383e-15,-8.652976380544052A8.652976380544052,8.652976380544052,0,1,1,-1.5895259741296383e-15,8.652976380544052Z" fill="#2ca02c" stroke="none"/></g><g transform="translate(144.9915292427908,239.85918472828365)" id="Nowy Sącz"><path id="p_393.02435126850037" d="M-1.5014728130526034e-15,8.173637297425877A8.173637297425877,8.173637297425877,0,1,1,1.5014728130526034e-15,-8.173637297425877A8.173637297425877,8.173637297425877,0,1,1,-1.5014728130526034e-15,8.173637297425877Z" fill="#2ca02c" stroke="none"/></g><g transform="translate(146.16092765546773,321.50670319997215)" id="Siemianowice Śląskie"><path id="p_474.9870443867646" d="M-1.3445544529158969e-15,7.319413531324722A7.319413531324722,7.319413531324722,0,1,1,1.3445544529158969e-15,-7.319413531324722A7.319413531324722,7.319413531324722,0,1,1,-1.3445544529158969e-15,7.319413531324722Z" fill="#2ca02c" stroke="none"/></g><g transform="translate(343.4695521948593,295.2379586852065)" id="Kikinda"><path id="p_645.018071955694" d="M-1.159231263313793e-15,6.3105610756282A6.3105610756282,6.3105610756282,0,1,1,1.159231263313793e-15,-6.3105610756282A6.3105610756282,6.3105610756282,0,1,1,-1.159231263313793e-15,6.3105610756282Z" fill="#2ca02c" stroke="none"/></g><g transform="translate(342.9366810625537,267.2222724392073)" id="Kranj"><path id="p_615.629707094215" d="M-1.0049611313883862e-15,5.470753592453919A5.470753592453919,5.470753592453919,0,1,1,1.0049611313883862e-15,-5.470753592453919A5.470753592453919,5.470753592453919,0,1,1,-1.0049611313883862e-15,5.470753592453919Z" fill="#2ca02c" stroke="none"/></g><g transform="translate(172.76303500664693,192.56973574477132)" id="Celje"><path id="p_370.785662962719" d="M-1.0016800488997551e-15,5.452892211300781A5.452892211300781,5.452892211300781,0,1,1,1.0016800488997551e-15,-5.452892211300781A5.452892211300781,5.452892211300781,0,1,1,-1.0016800488997551e-15,5.452892211300781Z" fill="#2ca02c" stroke="none"/></g><g transform="translate(138.62206454482634,305.141330104448)" id="Konstancin-Jeziorna"><path id="p_449.13356446901224" d="M-9.864841920929598e-16,5.370169819737896A5.370169819737896,5.370169819737896,0,1,1,9.864841920929598e-16,-5.370169819737896A5.370169819737896,5.370169819737896,0,1,1,-9.864841920929598e-16,5.370169819737896Z" fill="#2ca02c" stroke="none"/></g><g transform="translate(138.18352616829716,257.3857219012118)" id="Sopot"><path id="p_400.86922428346924" d="M-9.735898358975357e-16,5.299976213960286A5.299976213960286,5.299976213960286,0,1,1,9.735898358975357e-16,-5.299976213960286A5.299976213960286,5.299976213960286,0,1,1,-9.735898358975357e-16,5.299976213960286Z" fill="#2ca02c" stroke="none"/></g><g transform="translate(170.45420780096805,366.7958205430665)" id="Úbeda"><path id="p_542.5022882933241" d="M-9.64824500278108e-16,5.252259949289631A5.252259949289631,5.252259949289631,0,1,1,9.64824500278108e-16,-5.252259949289631A5.252259949289631,5.252259949289631,0,1,1,-9.64824500278108e-16,5.252259949289631Z" fill="#2ca02c" stroke="none"/></g><g transform="translate(135.14567240039048,290.2083178091188)" id="Wyszków"><path id="p_429.98740666578345" d="M-8.511447948439257e-16,4.6334164562741735A4.6334164562741735,4.6334164562741735,0,1,1,8.511447948439257e-16,-4.6334164562741735A4.6334164562741735,4.6334164562741735,0,1,1,-8.511447948439257e-16,4.6334164562741735Z" fill="#2ca02c" stroke="none"/></g><g transform="translate(135.18756427933056,272.14787459032306)" id="Koper"><path id="p_411.76982356151416" d="M-8.145832528612514e-16,4.434384691860521A4.434384691860521,4.434384691860521,0,1,1,8.145832528612514e-16,-4.434384691860521A4.434384691860521,4.434384691860521,0,1,1,-8.145832528612514e-16,4.434384691860521Z" fill="#2ca02c" stroke="none"/></g><g transform="translate(239.62782053013223,170.76695662541488)" id="Nova Gorica"><path id="p_413.5455039415095" d="M-5.787791210125014e-16,3.150726785962396A3.150726785962396,3.150726785962396,0,1,1,5.787791210125014e-16,-3.150726785962396A3.150726785962396,3.150726785962396,0,1,1,-5.787791210125014e-16,3.150726785962396Z" fill="#2ca02c" stroke="none"/></g><g transform="translate(341.6472789548744,281.34424755012503)" id="Strumień"><path id="p_625.3649322799394" d="M-4.359875678036943e-16,2.373405774939876A2.373405774939876,2.373405774939876,0,1,1,4.359875678036943e-16,-2.373405774939876A2.373405774939876,2.373405774939876,0,1,1,-4.359875678036943e-16,2.373405774939876Z" fill="#2ca02c" stroke="none"/></g><g transform="translate(350.5557305612159,277.5050436731209)" id="Szczebrzeszyn"><path id="p_630.0591460241011" d="M-3.670949423761864e-16,1.9983717897643207A1.9983717897643207,1.9983717897643207,0,1,1,3.670949423761864e-16,-1.9983717897643207A1.9983717897643207,1.9983717897643207,0,1,1,-3.670949423761864e-16,1.9983717897643207Z" fill="#2ca02c" stroke="none"/></g><g transform="translate(127.54310170142183,281.03017033217856)" id="Wollin"><path id="p_410.52906536434045" d="M-3.5927340634268607e-16,1.9557933307400754A1.9557933307400754,1.9557933307400754,0,1,1,3.5927340634268607e-16,-1.9557933307400754A1.9557933307400754,1.9557933307400754,0,1,1,-3.5927340634268607e-16,1.9557933307400754Z" fill="#2ca02c" stroke="none"/></g><g transform="translate(199.3386694566367,179.9617479103477)" id="Wąchock"><path id="p_380.7295345060945" d="M-2.625245595026819e-16,1.4291171391101596A1.4291171391101596,1.4291171391101596,0,1,1,2.625245595026819e-16,-1.4291171391101596A1.4291171391101596,1.4291171391101596,0,1,1,-2.625245595026819e-16,1.4291171391101596Z" fill="#2ca02c" stroke="none"/></g><g transform="translate(233.45217587823737,389.9846244469418)" id="Sochocin"><path id="p_624.7018015845963" d="M-2.3237696148939123e-16,1.2650012594171702A1.2650012594171702,1.2650012594171702,0,1,1,2.3237696148939123e-16,-1.2650012594171702A1.2650012594171702,1.2650012594171702,0,1,1,-2.3237696148939123e-16,1.2650012594171702Z" fill="#2ca02c" stroke="none"/></g><g transform="translate(453.37408705431426,281)" id="Hong Kong"><path id="p_814.0131435839046" d="M-1.4629457349911687e-14,79.63905652959033A79.63905652959033,79.63905652959033,0,1,1,1.4629457349911687e-14,-79.63905652959033A79.63905652959033,79.63905652959033,0,1,1,-1.4629457349911687e-14,79.63905652959033Z" fill="#ff7f0e" stroke="none"/></g><g transform="translate(595.592202941154,281)" id="Singapore"><path id="p_933.8425245968072" d="M-1.051671347486279e-14,57.250321655653075A57.250321655653075,57.250321655653075,0,1,1,1.051671347486279e-14,-57.250321655653075A57.250321655653075,57.250321655653075,0,1,1,-1.051671347486279e-14,57.250321655653075Z" fill="#ff7f0e" stroke="none"/></g><g transform="translate(356.5488512028885,418.0040207623824)" id="Tamale"><path id="p_817.4453560959274" d="M-7.879221509713064e-15,42.89248413065648A42.89248413065648,42.89248413065648,0,1,1,7.879221509713064e-15,-42.89248413065648A42.89248413065648,42.89248413065648,0,1,1,-7.879221509713064e-15,42.89248413065648Z" fill="#1f77b4" stroke="none"/></g><g transform="translate(407.6833780236037,418.0040207623824)" id="Polokwane Ext 44"><path id="p_828.6007037744484" d="M-5.35165444359058e-16,2.913304988462312A2.913304988462312,2.913304988462312,0,1,1,5.35165444359058e-16,-2.913304988462312A2.913304988462312,2.913304988462312,0,1,1,-5.35165444359058e-16,2.913304988462312Z" fill="#1f77b4" stroke="none"/></g><g transform="translate(363.2286073422689,169.75435268414265)" id="Calgary"><path id="p_564.2414172576996" d="M-5.742085439187192e-15,31.258457231288A31.258457231288,31.258457231288,0,1,1,5.742085439187192e-15,-31.258457231288A31.258457231288,31.258457231288,0,1,1,-5.742085439187192e-15,31.258457231288Z" fill="#d62728" stroke="none"/></g><g transform="translate(312.36695301694664,161.1737097758621)" id="Funes"><path id="p_477.87636966966" d="M-7.964564323165615e-16,4.335706876851272A4.335706876851272,4.335706876851272,0,1,1,7.964564323165615e-16,-4.335706876851272A4.335706876851272,4.335706876851272,0,1,1,-7.964564323165615e-16,4.335706876851272Z" fill="#9467bd" stroke="none"/></g></g><g id="labels"><g transform="translate(196.7829969202534,280.63470699395725)"><text text-anchor="middle" dominant-baseline="text-before-edge" transform="translate(0,-6.75)"><tspan x="0" y="0" dy="0" style="font-family: Arial, sans-serif; font-size: 10px; fill: black; font-weight: normal;">Madrid</tspan></text></g><g transform="translate(294.23820670225837,280.63470699395725)"><text text-anchor="middle" dominant-baseline="text-before-edge" transform="translate(0,-6.75)"><tspan x="0" y="0" dy="0" style="font-family: Arial, sans-serif; font-size: 10px; fill: black; font-weight: normal;">Warsaw</tspan></text></g><g transform="translate(257.0065863659154,353.5279208327363)"><text text-anchor="middle" dominant-baseline="text-before-edge" transform="translate(0,-6.75)"><tspan x="0" y="0" dy="0" style="font-family: Arial, sans-serif; font-size: 10px; fill: black; font-weight: normal;">Barcelona</tspan></text></g><g transform="translate(256.7228435323636,210.34550881112614)"><text text-anchor="middle" dominant-baseline="text-before-edge" transform="translate(0,-6.75)"><tspan x="0" y="0" dy="0" style="font-family: Arial, sans-serif; font-size: 10px; fill: black; font-weight: normal;">Munich</tspan></text></g><g transform="translate(198.92161468122978,204.8189984074914)"><text text-anchor="middle" dominant-baseline="text-before-edge" transform="translate(0,-6.75)"><tspan x="0" y="0" dy="0" style="font-family: Arial, sans-serif; font-size: 10px; fill: black; font-weight: normal;">Szczecin</tspan></text></g><g transform="translate(196.9877867650957,356.3222833516306)"><text text-anchor="middle" dominant-baseline="text-before-edge" transform="translate(0,-6.75)"><tspan x="0" y="0" dy="0" style="font-family: Arial, sans-serif; font-size: 10px; fill: black; font-weight: normal;">Sosnowiec</tspan></text></g><g transform="translate(312.5758607538982,221.39366413949978)"><text text-anchor="middle" dominant-baseline="text-before-edge" transform="translate(0,-6.75)"><tspan x="0" y="0" dy="0" style="font-family: Arial, sans-serif; font-size: 10px; fill: black; font-weight: normal;">Dąbrowa Górnicza</tspan></text></g><g transform="translate(312.8204874372449,338.44055750641104)"><text text-anchor="middle" dominant-baseline="text-before-edge" transform="translate(0,-6.75)"><tspan x="0" y="0" dy="0" style="font-family: Arial, sans-serif; font-size: 10px; fill: black; font-weight: normal;">Białystok</tspan></text></g><g transform="translate(161.8425160680739,216.3709398885003)"><text text-anchor="middle" dominant-baseline="text-before-edge" transform="translate(0,-6.75)"><tspan x="0" y="0" dy="0" style="font-family: Arial, sans-serif; font-size: 10px; fill: black; font-weight: normal;">Katowice</tspan></text></g><g transform="translate(161.67176018835724,343.528987426666)"><text text-anchor="middle" dominant-baseline="text-before-edge" transform="translate(0,-6.75)"><tspan x="0" y="0" dy="0" style="font-family: Arial, sans-serif; font-size: 10px; fill: black; font-weight: normal;">Gdynia</tspan></text></g><g transform="translate(218.2358334358937,173.78232679336145)"><text text-anchor="middle" dominant-baseline="text-before-edge" transform="translate(0,-6.75)"><tspan x="0" y="0" dy="0" style="font-family: Arial, sans-serif; font-size: 10px; fill: black; font-weight: normal;">Chorzów</tspan></text></g><g transform="translate(214.25502503452282,387.8994654598866)"><text text-anchor="middle" dominant-baseline="text-before-edge" transform="translate(0,-6.75)"><tspan x="0" y="0" dy="0" style="font-family: Arial, sans-serif; font-size: 10px; fill: black; font-weight: normal;">Rzeszów</tspan></text></g><g transform="translate(338.8555867244495,244.2535635067592)"><text text-anchor="middle" dominant-baseline="text-before-edge" transform="translate(0,-6.75)"><tspan x="0" y="0" dy="0" style="font-family: Arial, sans-serif; font-size: 10px; fill: black; font-weight: normal;">Kielce</tspan></text></g><g transform="translate(337.021473367608,317.16507899314325)"><text text-anchor="middle" dominant-baseline="text-before-edge" transform="translate(0,-6.75)"><tspan x="0" y="0" dy="0" style="font-family: Arial, sans-serif; font-size: 10px; fill: black; font-weight: normal;">Bytom</tspan></text></g><g transform="translate(301.8957977657157,192.313976240081)"><text text-anchor="middle" dominant-baseline="text-before-edge" transform="translate(0,-6.75)"><tspan x="0" y="0" dy="0" style="font-family: Arial, sans-serif; font-size: 10px; fill: black; font-weight: normal;">Vitry-sur-Seine</tspan></text></g><g transform="translate(305.90079600400566,367.2819857618129)"><text text-anchor="middle" dominant-baseline="text-before-edge" transform="translate(0,-6.75)"><tspan x="0" y="0" dy="0" style="font-family: Arial, sans-serif; font-size: 10px; fill: black; font-weight: normal;">Maribor</tspan></text></g><g transform="translate(144.9915292427908,239.85918472828365)"><text text-anchor="middle" dominant-baseline="text-before-edge" transform="translate(0,-6.75)"><tspan x="0" y="0" dy="0" style="font-family: Arial, sans-serif; font-size: 10px; fill: black; font-weight: normal;">Nowy Sącz</tspan></text></g><g transform="translate(146.16092765546773,321.50670319997215)"><text text-anchor="middle" dominant-baseline="text-before-edge" transform="translate(0,-6.75)"><tspan x="0" y="0" dy="0" style="font-family: Arial, sans-serif; font-size: 10px; fill: black; font-weight: normal;">Siemianowice Śląskie</tspan></text></g><g transform="translate(343.4695521948593,295.2379586852065)"><text text-anchor="middle" dominant-baseline="text-before-edge" transform="translate(0,-6.75)"><tspan x="0" y="0" dy="0" style="font-family: Arial, sans-serif; font-size: 10px; fill: black; font-weight: normal;">Kikinda</tspan></text></g><g transform="translate(342.9366810625537,267.2222724392073)"><text text-anchor="middle" dominant-baseline="text-before-edge" transform="translate(0,-6.75)"><tspan x="0" y="0" dy="0" style="font-family: Arial, sans-serif; font-size: 10px; fill: black; font-weight: normal;">Kranj</tspan></text></g><g transform="translate(172.76303500664693,192.56973574477132)"><text text-anchor="middle" dominant-baseline="text-before-edge" transform="translate(0,-6.75)"><tspan x="0" y="0" dy="0" style="font-family: Arial, sans-serif; font-size: 10px; fill: black; font-weight: normal;">Celje</tspan></text></g><g transform="translate(138.62206454482634,305.141330104448)"><text text-anchor="middle" dominant-baseline="text-before-edge" transform="translate(0,-6.75)"><tspan x="0" y="0" dy="0" style="font-family: Arial, sans-serif; font-size: 10px; fill: black; font-weight: normal;">Konstancin-Jeziorna</tspan></text></g><g transform="translate(138.18352616829716,257.3857219012118)"><text text-anchor="middle" dominant-baseline="text-before-edge" transform="translate(0,-6.75)"><tspan x="0" y="0" dy="0" style="font-family: Arial, sans-serif; font-size: 10px; fill: black; font-weight: normal;">Sopot</tspan></text></g><g transform="translate(170.45420780096805,366.7958205430665)"><text text-anchor="middle" dominant-baseline="text-before-edge" transform="translate(0,-6.75)"><tspan x="0" y="0" dy="0" style="font-family: Arial, sans-serif; font-size: 10px; fill: black; font-weight: normal;">Úbeda</tspan></text></g><g transform="translate(135.14567240039048,290.2083178091188)"><text text-anchor="middle" dominant-baseline="text-before-edge" transform="translate(0,-6.75)"><tspan x="0" y="0" dy="0" style="font-family: Arial, sans-serif; font-size: 10px; fill: black; font-weight: normal;">Wyszków</tspan></text></g><g transform="translate(135.18756427933056,272.14787459032306)"><text text-anchor="middle" dominant-baseline="text-before-edge" transform="translate(0,-6.75)"><tspan x="0" y="0" dy="0" style="font-family: Arial, sans-serif; font-size: 10px; fill: black; font-weight: normal;">Koper</tspan></text></g><g transform="translate(239.62782053013223,170.76695662541488)"><text text-anchor="middle" dominant-baseline="text-before-edge" transform="translate(0,-6.75)"><tspan x="0" y="0" dy="0" style="font-family: Arial, sans-serif; font-size: 10px; fill: black; font-weight: normal;">Nova Gorica</tspan></text></g><g transform="translate(341.6472789548744,281.34424755012503)"><text text-anchor="middle" dominant-baseline="text-before-edge" transform="translate(0,-6.75)"><tspan x="0" y="0" dy="0" style="font-family: Arial, sans-serif; font-size: 10px; fill: black; font-weight: normal;">Strumień</tspan></text></g><g transform="translate(350.5557305612159,277.5050436731209)"><text text-anchor="middle" dominant-baseline="text-before-edge" transform="translate(0,-6.75)"><tspan x="0" y="0" dy="0" style="font-family: Arial, sans-serif; font-size: 10px; fill: black; font-weight: normal;">Szczebrzeszyn</tspan></text></g><g transform="translate(127.54310170142183,281.03017033217856)"><text text-anchor="middle" dominant-baseline="text-before-edge" transform="translate(0,-6.75)"><tspan x="0" y="0" dy="0" style="font-family: Arial, sans-serif; font-size: 10px; fill: black; font-weight: normal;">Wollin</tspan></text></g><g transform="translate(199.3386694566367,179.9617479103477)"><text text-anchor="middle" dominant-baseline="text-before-edge" transform="translate(0,-6.75)"><tspan x="0" y="0" dy="0" style="font-family: Arial, sans-serif; font-size: 10px; fill: black; font-weight: normal;">Wąchock</tspan></text></g><g transform="translate(233.45217587823737,389.9846244469418)"><text text-anchor="middle" dominant-baseline="text-before-edge" transform="translate(0,-6.75)"><tspan x="0" y="0" dy="0" style="font-family: Arial, sans-serif; font-size: 10px; fill: black; font-weight: normal;">Sochocin</tspan></text></g><g transform="translate(453.37408705431426,281)"><text text-anchor="middle" dominant-baseline="text-before-edge" transform="translate(0,-6.75)"><tspan x="0" y="0" dy="0" style="font-family: Arial, sans-serif; font-size: 10px; fill: black; font-weight: normal;">Hong Kong</tspan></text></g><g transform="translate(595.592202941154,281)"><text text-anchor="middle" dominant-baseline="text-before-edge" transform="translate(0,-6.75)"><tspan x="0" y="0" dy="0" style="font-family: Arial, sans-serif; font-size: 10px; fill: black; font-weight: normal;">Singapore</tspan></text></g><g transform="translate(356.5488512028885,418.0040207623824)"><text text-anchor="middle" dominant-baseline="text-before-edge" transform="translate(0,-6.75)"><tspan x="0" y="0" dy="0" style="font-family: Arial, sans-serif; font-size: 10px; fill: black; font-weight: normal;">Tamale</tspan></text></g><g transform="translate(407.6833780236037,418.0040207623824)"><text text-anchor="middle" dominant-baseline="text-before-edge" transform="translate(0,-6.75)"><tspan x="0" y="0" dy="0" style="font-family: Arial, sans-serif; font-size: 10px; fill: black; font-weight: normal;">Polokwane Ext 44</tspan></text></g><g transform="translate(363.2286073422689,169.75435268414265)"><text text-anchor="middle" dominant-baseline="text-before-edge" transform="translate(0,-6.75)"><tspan x="0" y="0" dy="0" style="font-family: Arial, sans-serif; font-size: 10px; fill: black; font-weight: normal;">Calgary</tspan></text></g><g transform="translate(312.36695301694664,161.1737097758621)"><text text-anchor="middle" dominant-baseline="text-before-edge" transform="translate(0,-6.75)"><tspan x="0" y="0" dy="0" style="font-family: Arial, sans-serif; font-size: 10px; fill: black; font-weight: normal;">Funes</tspan></text></g></g></g><g id="legend" transform="translate(805,20)"><g transform="translate(5,0)"><g class="legendSize" transform="translate(0,0)"><g class="legendCells" transform="translate(50,18)"><g class="cell" transform="translate(0, 25)"><circle class="swatch" r="25" fill="none" stroke="#ccc"/><text class="label" transform="translate( 55,&#xA;          5)" font-family="&quot;Arial&quot;, sans-serif" font-size="10px"><tspan x="0" dy="0em">397209.0</tspan></text></g><g class="cell" transform="translate(0, 125)"><circle class="swatch" r="50" fill="none" stroke="#ccc"/><text class="label" transform="translate( 55,&#xA;          5)" font-family="&quot;Arial&quot;, sans-serif" font-size="10px"><tspan x="0" dy="0em">1588835.9</tspan></text></g></g><text class="legendTitle" font-family="&quot;Arial&quot;, sans-serif" font-size="12px" font-weight="bold"><tspan x="0" dy="0em">female_population [sum]</tspan></text></g><g class="legendColor" transform="translate(0,226.5)"><g class="legendCells" transform="translate(0,18)"><g class="cell" transform="translate(0, 0)"><rect class="swatch" height="15" width="15" style="fill: rgb(31, 119, 180);"/><text class="label" transform="translate( 20, 12.5)" font-family="&quot;Arial&quot;, sans-serif" font-size="10px"><tspan x="0" dy="0em">Africa</tspan></text></g><g class="cell" transform="translate(0, 23)"><rect class="swatch" height="15" width="15" style="fill: rgb(255, 127, 14);"/><text class="label" transform="translate( 20, 12.5)" font-family="&quot;Arial&quot;, sans-serif" font-size="10px"><tspan x="0" dy="0em">Asia</tspan></text></g><g class="cell" transform="translate(0, 46)"><rect class="swatch" height="15" width="15" style="fill: rgb(44, 160, 44);"/><text class="label" transform="translate( 20, 12.5)" font-family="&quot;Arial&quot;, sans-serif" font-size="10px"><tspan x="0" dy="0em">Europe</tspan></text></g><g class="cell" transform="translate(0, 69)"><rect class="swatch" height="15" width="15" style="fill: rgb(214, 39, 40);"/><text class="label" transform="translate( 20, 12.5)" font-family="&quot;Arial&quot;, sans-serif" font-size="10px"><tspan x="0" dy="0em">North America</tspan></text></g><g class="cell" transform="translate(0, 92)"><rect class="swatch" height="15" width="15" style="fill: rgb(148, 103, 189);"/><text class="label" transform="translate( 20, 12.5)" font-family="&quot;Arial&quot;, sans-serif" font-size="10px"><tspan x="0" dy="0em">South America</tspan></text></g></g><text class="legendTitle" font-family="&quot;Arial&quot;, sans-serif" font-size="12px" font-weight="bold"><tspan x="0" dy="0em">continentLabel [csvDistinct]</tspan></text></g></g></g></svg>